<svg width="24" height="24" viewBox="0 0 24 24" fill="none" xmlns="http://www.w3.org/2000/svg">
<path d="M10.3335 6.44434H15.3335V7.55545H10.3335V6.44434Z" fill="white"/>
<path d="M10.3335 8.66675H15.3335V9.77786H10.3335V8.66675Z" fill="white"/>
<path d="M10.3335 10.8889H15.3335V12H10.3335V10.8889Z" fill="white"/>
<path d="M10.3335 13.1111H15.3335V14.2222H10.3335V13.1111Z" fill="white"/>
<path d="M10.3335 15.3333H15.3335V16.4444H10.3335V15.3333Z" fill="white"/>
<path d="M8.11133 6.44434H9.22244V7.55545H8.11133V6.44434Z" fill="white"/>
<path d="M8.11133 8.66675H9.22244V9.77786H8.11133V8.66675Z" fill="white"/>
<path d="M8.11133 10.8889H9.22244V12H8.11133V10.8889Z" fill="white"/>
<path d="M8.11133 13.1111H9.22244V14.2222H8.11133V13.1111Z" fill="white"/>
<path d="M8.11133 15.3333H9.22244V16.4444H8.11133V15.3333Z" fill="white"/>
<path d="M17.5557 3.11108H6.44461C6.14992 3.11108 5.86731 3.22815 5.65893 3.43652C5.45056 3.64489 5.3335 3.92751 5.3335 4.2222V19.7778C5.3335 20.0724 5.45056 20.3551 5.65893 20.5634C5.86731 20.7718 6.14992 20.8889 6.44461 20.8889H17.5557C17.8504 20.8889 18.133 20.7718 18.3414 20.5634C18.5498 20.3551 18.6668 20.0724 18.6668 19.7778V4.2222C18.6668 3.92751 18.5498 3.64489 18.3414 3.43652C18.133 3.22815 17.8504 3.11108 17.5557 3.11108ZM17.5557 19.7778H6.44461V4.2222H17.5557V19.7778Z" fill="white"/>
</svg>
