<svg width="16" height="20" viewBox="0 0 16 20" fill="none" xmlns="http://www.w3.org/2000/svg">
<path d="M15.0334 20H0.343828C0.252639 20 0.165185 19.9534 0.100705 19.8704C0.0362247 19.7874 0 19.6748 0 19.5575V0.650816C0 0.533448 0.0362247 0.420889 0.100705 0.337898C0.165185 0.254906 0.252639 0.208282 0.343828 0.208282H8.78137L15.3772 8.69766V19.5574C15.3772 19.6155 15.3683 19.6731 15.3511 19.7268C15.3338 19.7805 15.3085 19.8293 15.2765 19.8704C15.2446 19.9115 15.2067 19.9441 15.165 19.9663C15.1233 19.9885 15.0786 20 15.0334 20Z" fill="white" fill-opacity="0.2"/>
<path d="M6.91035 4.99763H2.34566C2.08734 4.99763 1.87793 4.7281 1.87793 4.39562C1.87793 4.06314 2.08734 3.79361 2.34566 3.79361H6.91035C7.16867 3.79361 7.37809 4.06314 7.37809 4.39562C7.37809 4.7281 7.16867 4.99763 6.91035 4.99763ZM7.37809 8.33603C7.37809 8.00355 7.16867 7.73402 6.91035 7.73402H2.34566C2.08734 7.73402 1.87793 8.00355 1.87793 8.33603C1.87793 8.66851 2.08734 8.93804 2.34566 8.93804H6.91035C7.16867 8.93799 7.37809 8.66851 7.37809 8.33603ZM7.37809 12.2764C7.37809 11.944 7.16867 11.6744 6.91035 11.6744H2.34566C2.08734 11.6744 1.87793 11.9439 1.87793 12.2764C1.87793 12.6089 2.08734 12.8784 2.34566 12.8784H6.91035C7.16867 12.8784 7.37809 12.6088 7.37809 12.2764ZM11.3298 16.2168C11.3298 15.8843 11.1204 15.6147 10.8621 15.6147H2.34566C2.08734 15.6147 1.87793 15.8843 1.87793 16.2168C1.87793 16.5492 2.08734 16.8188 2.34566 16.8188H10.8621C11.1204 16.8187 11.3298 16.5492 11.3298 16.2168ZM12.9054 12.2764C12.9054 11.944 12.696 11.6744 12.4377 11.6744H9.28656C9.02828 11.6744 8.81883 11.9439 8.81883 12.2764C8.81883 12.6089 9.02824 12.8784 9.28656 12.8784H12.4377C12.696 12.8784 12.9054 12.6088 12.9054 12.2764Z" fill="white"/>
<path d="M8.78125 0L15.3771 8.48937H10.1832C9.40894 8.48937 8.78125 7.68148 8.78125 6.6849V0Z" fill="white" fill-opacity="0.5"/>
</svg>
