<svg width="232" height="40" viewBox="0 0 232 40" fill="none" xmlns="http://www.w3.org/2000/svg">
<path d="M32.6 14.6V11.625C32.5998 11.4593 32.5251 11.3004 32.3923 11.1833C32.2595 11.0661 32.0795 11.0002 31.8917 11H23.1083C22.9205 11.0002 22.7405 11.0661 22.6077 11.1833C22.4749 11.3004 22.4002 11.4593 22.4 11.625V14.6L19 16.7427V25H36V16.7427L32.6 14.6ZM34.5011 17.0271L32.6 18.1237V15.8288L34.5011 17.0271ZM23.5333 12H31.4667V18.7776L29.442 19.9457L27.7924 19.1909L25.9945 19.9567L23.5333 18.6383V12ZM27.7743 20.3091L34.8667 23.554V24H20.1333V23.5638L27.7743 20.3091ZM20.1333 17.9867L24.778 20.475L20.1333 22.4534V17.9867ZM30.597 20.4742L34.8667 18.0108V22.4275L30.597 20.4742ZM22.4 15.8288V18.0312L20.5111 17.0192L22.4 15.8288Z" fill="white"/>
</svg>
