<svg width="24" height="24" viewBox="0 0 24 24" fill="none" xmlns="http://www.w3.org/2000/svg">
<path d="M20.7498 14.875C20.7509 14.2437 20.5598 13.627 20.2018 13.1069C19.8439 12.5869 19.3361 12.1882 18.746 11.9637C18.5365 11.0922 18.0633 10.3065 17.3909 9.71374C16.7186 9.12099 15.8797 8.75004 14.9888 8.65149C14.0979 8.55294 13.1982 8.73158 12.4126 9.16305C11.6269 9.59452 10.9934 10.2578 10.5985 11.0625C10.0336 9.32767 10.0624 7.45414 10.6804 5.7375C10.7168 5.64326 10.7301 5.54168 10.7194 5.44123C10.7086 5.34077 10.674 5.24435 10.6184 5.15998C10.5628 5.0756 10.4879 5.00573 10.3998 4.95616C10.3118 4.90659 10.2132 4.87877 10.1123 4.875C10.0756 4.87506 10.039 4.87841 10.0029 4.885C8.01326 5.23908 6.22497 6.31668 4.98231 7.91033C3.73965 9.50398 3.13048 11.501 3.27208 13.5169C3.41369 15.5328 4.29606 17.4251 5.7493 18.8294C7.20255 20.2336 9.12393 21.0507 11.1435 21.1231C11.246 21.1269 11.3485 21.1231 11.4498 21.1231C12.6907 21.1225 13.9151 20.8385 15.0297 20.2928C16.1442 19.7472 17.1195 18.9542 17.881 17.9744C18.6607 17.9117 19.3884 17.5582 19.9198 16.9841C20.4512 16.4101 20.7474 15.6573 20.7498 14.875ZM11.1891 19.8737C9.56982 19.8159 8.0219 19.1928 6.8141 18.1127C5.6063 17.0326 4.81488 15.5636 4.57725 13.9608C4.33962 12.3579 4.67078 10.7225 5.51324 9.33841C6.3557 7.95431 7.65626 6.90892 9.18913 6.38375C8.74084 8.34185 8.92554 10.3917 9.71663 12.2381C9.14181 12.597 8.69959 13.1334 8.45693 13.7662C8.21427 14.3989 8.18438 15.0934 8.37179 15.7447C8.55919 16.3959 8.95369 16.9683 9.49554 17.3753C10.0374 17.7822 10.6971 18.0015 11.3748 18H16.1729C14.8923 19.1993 13.2048 19.8688 11.4504 19.8737C11.3641 19.8737 11.2766 19.8762 11.1891 19.8737ZM17.6248 16.75H11.3748C10.9155 16.7513 10.4717 16.5837 10.128 16.279C9.78436 15.9743 9.56474 15.5538 9.511 15.0977C9.45726 14.6415 9.57316 14.1816 9.83663 13.8054C10.1001 13.4291 10.4927 13.163 10.9398 13.0575L11.351 12.9594L11.4129 12.5406C11.5217 11.7997 11.8934 11.1226 12.4602 10.633C13.0269 10.1434 13.7508 9.87406 14.4998 9.87406C15.2487 9.87406 15.9726 10.1434 16.5393 10.633C17.1061 11.1226 17.4778 11.7997 17.5866 12.5406L17.6485 12.9594L18.0598 13.0575C18.5068 13.163 18.8994 13.4291 19.1629 13.8054C19.4263 14.1816 19.5422 14.6415 19.4885 15.0977C19.4348 15.5538 19.2151 15.9743 18.8715 16.279C18.5278 16.5837 18.084 16.7513 17.6248 16.75Z" fill="white"/>
</svg>
